<svg xmlns="http://www.w3.org/2000/svg" style="background-color: red;" height="135" width="200" viewBox="13 0 200 135">
	<g transform="rotate(-24 107 60)">
		<rect width="170" height="18" x="25" y="50" fill="white"></rect>
		<line x1=" 28" x2=" 28" y1="53" y2="68" stroke="red"></line>
		<line x1=" 31" x2=" 31" y1="53" y2="68" stroke="red"></line>
		<line x1=" 34" x2=" 34" y1="53" y2="68" stroke="red"></line>
		<line x1=" 37" x2=" 37" y1="53" y2="68" stroke="red"></line>
		<line x1=" 40" x2=" 40" y1="53" y2="68" stroke="red"></line>
		<line x1=" 43" x2=" 43" y1="53" y2="68" stroke="red"></line>
		<line x1=" 46" x2=" 46" y1="53" y2="68" stroke="red"></line>
		<line x1=" 49" x2=" 49" y1="53" y2="68" stroke="red"></line>
		<line x1=" 52" x2=" 52" y1="53" y2="68" stroke="red"></line>
		<line x1=" 55" x2=" 55" y1="53" y2="68" stroke="red"></line>
		<line x1=" 58" x2=" 58" y1="53" y2="68" stroke="red"></line>
		<line x1=" 61" x2=" 61" y1="53" y2="68" stroke="red"></line>
		<line x1=" 64" x2=" 64" y1="53" y2="68" stroke="red"></line>
		<line x1=" 67" x2=" 67" y1="53" y2="68" stroke="red"></line>
		<line x1=" 70" x2=" 70" y1="53" y2="68" stroke="red"></line>
		<line x1=" 73" x2=" 73" y1="53" y2="68" stroke="red"></line>
		<line x1=" 76" x2=" 76" y1="53" y2="68" stroke="red"></line>
		<line x1=" 79" x2=" 79" y1="53" y2="68" stroke="red"></line>
		<line x1=" 82" x2=" 82" y1="53" y2="68" stroke="red"></line>
		<line x1=" 85" x2=" 85" y1="53" y2="68" stroke="red"></line>
		<line x1=" 88" x2=" 88" y1="53" y2="68" stroke="red"></line>
		<line x1=" 91" x2=" 91" y1="53" y2="68" stroke="red"></line>
		<line x1=" 94" x2=" 94" y1="53" y2="68" stroke="red"></line>
		<line x1=" 97" x2=" 97" y1="53" y2="68" stroke="red"></line>
		<line x1="100" x2="100" y1="53" y2="68" stroke="red"></line>
		<line x1="103" x2="103" y1="53" y2="68" stroke="red"></line>
		<line x1="106" x2="106" y1="53" y2="68" stroke="red"></line>
		<line x1="110" x2="110" y1="53" y2="68" stroke="red"></line>
		<line x1="112" x2="112" y1="53" y2="68" stroke="red"></line>
		<line x1="114" x2="114" y1="53" y2="68" stroke="red"></line>
		<line x1="116" x2="116" y1="53" y2="68" stroke="red"></line>
		<line x1="118" x2="118" y1="53" y2="68" stroke="red"></line>
		<line x1="120" x2="120" y1="53" y2="68" stroke="red"></line>
		<line x1="122" x2="122" y1="53" y2="68" stroke="red"></line>
		<line x1="124" x2="124" y1="53" y2="68" stroke="red"></line>
		<line x1="126" x2="126" y1="53" y2="68" stroke="red"></line>
		<line x1="128" x2="128" y1="53" y2="68" stroke="red"></line>
		<line x1="130" x2="130" y1="53" y2="68" stroke="red"></line>
		<line x1="132" x2="132" y1="53" y2="68" stroke="red"></line>
		<line x1="134" x2="134" y1="53" y2="68" stroke="red"></line>
		<line x1="136" x2="136" y1="53" y2="68" stroke="red"></line>
		<line x1="138" x2="138" y1="53" y2="68" stroke="red"></line>
		<line x1="140" x2="140" y1="53" y2="68" stroke="red"></line>
		<line x1="142" x2="142" y1="53" y2="68" stroke="red"></line>
		<line x1="144" x2="144" y1="53" y2="68" stroke="red"></line>
		<line x1="146" x2="146" y1="53" y2="68" stroke="red"></line>
		<line x1="148" x2="148" y1="53" y2="68" stroke="red"></line>
		<line x1="150" x2="150" y1="53" y2="68" stroke="red"></line>
		<line x1="152" x2="152" y1="53" y2="68" stroke="red"></line>
		<line x1="154" x2="154" y1="53" y2="68" stroke="red"></line>
		<line x1="156" x2="156" y1="53" y2="68" stroke="red"></line>
		<line x1="158" x2="158" y1="53" y2="68" stroke="red"></line>
		<line x1="160" x2="160" y1="53" y2="68" stroke="red"></line>
		<line x1="162" x2="162" y1="53" y2="68" stroke="red"></line>
		<line x1="164" x2="164" y1="53" y2="68" stroke="red"></line>
		<line x1="166" x2="166" y1="53" y2="68" stroke="red"></line>
		<line x1="168" x2="168" y1="53" y2="68" stroke="red"></line>
		<line x1="170" x2="170" y1="53" y2="68" stroke="red"></line>
		<line x1="172" x2="172" y1="53" y2="68" stroke="red"></line>
		<line x1="174" x2="174" y1="53" y2="68" stroke="red"></line>
		<line x1="176" x2="176" y1="53" y2="68" stroke="red"></line>
		<line x1="178" x2="178" y1="53" y2="68" stroke="red"></line>
		<line x1="180" x2="180" y1="53" y2="68" stroke="red"></line>
		<line x1="182" x2="182" y1="53" y2="68" stroke="red"></line>
		<line x1="184" x2="184" y1="53" y2="68" stroke="red"></line>
		<line x1="186" x2="186" y1="53" y2="68" stroke="red"></line>
		<line x1="188" x2="188" y1="53" y2="68" stroke="red"></line>
		<line x1="190" x2="190" y1="53" y2="68" stroke="red"></line>
		<line x1="192" x2="192" y1="53" y2="68" stroke="red"></line>
	</g>
	<polygon points="36 21 123 60 163 74 163 83 119 66 156 92 151 98 116 73" stroke="none" fill="white" />
	<ellipse cx="180" cy="84" rx="20" ry="13" transform="rotate(20 180 80)" fill="white"></ellipse>
	<ellipse cx="180" cy="84" rx="13" ry="9" transform="rotate(20 180 80)" fill="red"></ellipse>
	<ellipse cx="170" cy="106" rx="20" ry="13" transform="rotate(32 170 100)" fill="white"></ellipse>
	<ellipse cx="170" cy="106" rx="13" ry="9" transform="rotate(32 170 100)" fill="red"></ellipse>
	<circle cx="107" cy="60" r="3" fill="red"></circle>
</svg>
